:SAMPLES-PER-SECOND 30
:FULLY-SPECIFIED
:DEGREES
1511
root  -2.69588 39.0861 26.8727 -177.504 -13.1671 173.09
RightUpLeg  -13.2721 -7.73238 -11.6114
RightLeg  25.8822 5.82935 2.83833
RightFoot  -12.0316 -0.0738357 1.28335
RightToes  -1.33073e-015 0 -3.6325e-017
Spine  6.13744 -2.05202 5.69454
Spine1  12.4119 -0.653171 -4.19692
HEad  -25.8676 -1.57672 -21.952
LeftShoulder1  1.19025 -0.0223005 -27.637
LeftArm  -14.4729 -13.4083 -42.8032
LeftForeArm  5.33385 -65.3897 -25.3691
LeftHand  -0.0740726 3.08486 3.03984
RightShoulder  -0.0219778 -3.54852 24.4348
RightArm  -11.8342 10.8924 41.1981
RightForeArm  18.3418 75.1174 49.8383
RightHand  -0.271254 3.79853 -3.69023
LeftUpLeg  -21.5989 12.4945 1.32874
LeftLeg  27.1588 -5.00163 -2.45507
LeftFoot  -11.1575 0.0820714 -10.6799
LeftToes  -1.93726e-010 2.42366e-011 2.16268e-013
1512
root  -3.19672 39.1222 26.847 -177.412 -12.6621 172.445
RightUpLeg  -12.9188 -7.71933 -13.2025
RightLeg  25.4628 6.49982 3.13478
RightFoot  -11.9008 -0.0710378 1.89639
RightToes  -1.33073e-015 0 -3.6325e-017
Spine  6.14817 -2.07508 4.6248
Spine1  12.2431 -0.727271 -4.15711
HEad  -25.9868 -0.456253 -22.9713
LeftShoulder1  1.15374 0.095999 -27.738
LeftArm  -14.4677 -13.2189 -42.0933
LeftForeArm  5.35867 -65.6166 -25.6808
LeftHand  -0.0790328 2.82553 2.97721
RightShoulder  0.0311485 -3.37436 23.9566
RightArm  -11.6649 10.5103 41.7816
RightForeArm  18.884 75.2186 50.3141
RightHand  -0.279421 3.19767 -4.01121
LeftUpLeg  -20.6126 11.1525 3.53085
LeftLeg  24.447 -4.50531 -1.90988
LeftFoot  -10.5989 0.124858 -9.36964
LeftToes  -1.93726e-010 2.42366e-011 2.16268e-013
1513
root  -3.74989 39.0572 26.8222 -177.232 -12.4288 172.07
RightUpLeg  -13.0369 -6.86543 -14.5449
RightLeg  25.796 6.20134 3.02572
RightFoot  -12.2316 -0.0596164 3.00147
RightToes  -1.33073e-015 0 -3.6325e-017
Spine  6.03958 -2.20905 4.02788
Spine1  12.0136 -0.793466 -4.55448
HEad  -26.238 1.44714 -23.7926
LeftShoulder1  1.1484 0.103661 -27.6552
LeftArm  -14.4281 -13.2725 -41.5238
LeftForeArm  5.24945 -65.6419 -25.7308
LeftHand  -0.0809811 2.72116 2.97207
RightShoulder  0.0658073 -3.25911 23.8892
RightArm  -11.5211 9.96307 42.2515
RightForeArm  20.5779 75.5528 51.9781
RightHand  -0.285256 3.35801 -4.02836
LeftUpLeg  -20.1122 9.63889 5.94724
LeftLeg  22.2818 -3.91494 -1.43511
LeftFoot  -10.6768 0.11953 -9.54217
LeftToes  -1.93726e-010 2.42366e-011 2.16268e-013
1514
root  -4.38475 38.962 26.7904 -177.35 -12.5096 171.743
RightUpLeg  -12.8169 -6.3515 -16.0057
RightLeg  26.3569 5.93676 2.96367
RightFoot  -12.609 -0.0435365 3.811
RightToes  -1.33073e-015 0 -3.6325e-017
Spine  6.0012 -2.51578 3.3168
Spine1  12.0301 -1.06022 -4.90537
HEad  -25.8003 2.41051 -25.3168
LeftShoulder1  1.17836 0.020501 -27.714
LeftArm  -14.8674 -13.091 -41.3692
LeftForeArm  5.8294 -65.8143 -25.902
LeftHand  -0.0737733 2.72838 2.66399
RightShoulder  0.00265721 -3.46872 24.1654
RightArm  -11.2576 10.1113 42.4024
RightForeArm  21.4226 75.7033 52.7836
RightHand  -0.292485 3.54117 -4.05197
LeftUpLeg  -19.1592 7.70135 8.29835
LeftLeg  19.7008 -3.00101 -0.884476
LeftFoot  -10.916 0.0988591 -9.05312
LeftToes  -1.93726e-010 2.42366e-011 2.16268e-013
1515
root  -5.07299 38.8267 26.7909 -177.626 -12.4774 171.453
RightUpLeg  -12.5688 -6.01352 -17.584
RightLeg  27.0515 6.04035 3.11368
RightFoot  -13.0387 -0.0158905 4.85303
RightToes  -1.33073e-015 0 -3.6325e-017
Spine  6.00493 -2.7636 2.92233
Spine1  12.4724 -1.05616 -5.88337
HEad  -25.0181 2.70261 -24.7947
LeftShoulder1  1.19462 -0.054352 -27.4445
LeftArm  -15.0814 -13.4079 -41.3244
LeftForeArm  5.50898 -65.8428 -25.9841
LeftHand  -0.0758869 3.06782 3.0577
RightShoulder  9.94797e-005 -3.47663 24.3814
RightArm  -11.4767 9.87316 42.3805
RightForeArm  23.3743 76.0575 54.8203
RightHand  -0.308125 3.62602 -4.21907
LeftUpLeg  -18.031 5.2557 10.4897
LeftLeg  17.0038 -0.619474 0.135159
LeftFoot  -10.5137 0.124527 -8.57913
LeftToes  -1.93726e-010 2.42366e-011 2.16268e-013
1516
root  -5.79334 38.6147 26.802 -178.034 -12.2132 171.427
RightUpLeg  -12.493 -5.11785 -18.9077
RightLeg  28.0198 5.90218 3.16808
RightFoot  -13.7493 0.0365971 6.19457
RightToes  -1.33073e-015 0 -3.6325e-017
Spine  6.59914 -2.92953 2.43662
Spine1  12.2447 -1.08256 -6.56136
HEad  -24.0665 3.82135 -24.3271
LeftShoulder1  1.08887 0.241011 -27.248
LeftArm  -15.0452 -13.5932 -41.563
LeftForeArm  5.38616 -66.0423 -26.2903
LeftHand  -0.0974935 2.64289 3.62499
RightShoulder  -0.0274908 -3.56604 24.4539
RightArm  -11.5793 9.93255 42.6075
RightForeArm  24.3393 76.2601 56.2045
RightHand  -0.32631 3.60405 -4.45933
LeftUpLeg  -16.9559 4.3403 12.4377
LeftLeg  14.8007 0.913083 0.917925
LeftFoot  -10.0352 0.145835 -7.50771
LeftToes  -1.93726e-010 2.42366e-011 2.16268e-013
1517
root  -6.61776 38.3424 26.8028 -178.524 -12.1156 171.913
RightUpLeg  -12.4229 -4.54146 -19.8753
RightLeg  29.1977 5.88017 3.31788
RightFoot  -14.4006 0.0952156 7.20523
RightToes  -1.33073e-015 0 -3.6325e-017
Spine  6.93844 -2.99622 2.11446
Spine1  12.2182 -1.23975 -6.39727
HEad  -22.1305 5.86598 -23.336
LeftShoulder1  1.05518 0.374352 -27.5989
LeftArm  -15.0619 -13.8368 -41.4926
LeftForeArm  5.85776 -66.2698 -26.566
LeftHand  -0.102264 2.41698 3.52326
RightShoulder  0.00509974 -3.46008 24.0481
RightArm  -12.2064 9.57933 42.7835
RightForeArm  26.9298 76.5934 58.2993
RightHand  -0.292575 3.31695 -4.13758
LeftUpLeg  -16.1115 4.99147 14.0523
LeftLeg  13.2114 1.0578 1.53481
LeftFoot  -9.93826 0.138499 -6.4189
LeftToes  -1.93726e-010 2.42366e-011 2.16268e-013
1518
root  -7.58107 38.0247 26.8016 -179.002 -11.9613 172.465
RightUpLeg  -12.2964 -4.29638 -21.059
RightLeg  30.2503 6.27793 3.71127
RightFoot  -15.0481 0.170928 8.44028
RightToes  -1.33073e-015 0 -3.6325e-017
Spine  6.83138 -3.06994 2.15184
Spine1  12.7013 -1.18688 -6.9119
HEad  -19.1414 7.71587 -22.8266
LeftShoulder1  1.10826 0.160759 -27.0084
LeftArm  -15.2753 -13.8462 -42.2199
LeftForeArm  6.8171 -66.4538 -26.7196
LeftHand  -0.0652671 2.82353 2.36211
RightShoulder  -0.0419201 -3.61349 24.3044
RightArm  -12.7477 9.72559 42.4368
RightForeArm  27.7812 76.7323 59.392
RightHand  -0.325229 3.80917 -4.35239
LeftUpLeg  -15.4871 5.59951 15.0885
LeftLeg  12.5992 1.68441 2.165
LeftFoot  -9.85652 0.133832 -5.83052
LeftToes  -1.93726e-010 2.42366e-011 2.16268e-013
1519
root  -8.62899 37.7145 26.8213 -179.218 -11.8506 173.218
RightUpLeg  -12.1962 -3.90616 -22.1083
RightLeg  30.667 6.4819 3.90442
RightFoot  -15.3407 0.237297 9.75398
RightToes  -1.33073e-015 0 -3.6325e-017
Spine  6.35714 -3.22256 1.86009
Spine1  13.4072 -1.37032 -6.97945
HEad  -16.2815 9.17928 -21.6662
LeftShoulder1  1.08003 0.234251 -26.8894
LeftArm  -15.4629 -13.8588 -42.8093
LeftForeArm  7.67461 -66.9144 -27.3224
LeftHand  -0.0795174 2.62722 2.80615
RightShoulder  0.0251102 -3.39419 23.775
RightArm  -13.7189 9.71698 42.8106
RightForeArm  28.9847 76.8451 60.0868
RightHand  -0.257216 3.45774 -3.6168
LeftUpLeg  -15.2189 6.78528 15.608
LeftLeg  12.6543 3.36947 2.71515
LeftFoot  -9.12829 0.155228 -5.42173
LeftToes  -1.93726e-010 2.42366e-011 2.16268e-013
1520
root  -9.78534 37.3867 26.8767 -179.318 -11.4615 173.997
RightUpLeg  -12.1032 -2.9812 -23.2895
RightLeg  30.4988 6.56515 3.9308
RightFoot  -15.4655 0.311966 11.5614
RightToes  -1.33073e-015 0 -3.6325e-017
Spine  6.32515 -3.21872 1.60792
Spine1  13.515 -1.32975 -7.37906
HEad  -13.8911 10.6922 -19.8237
LeftShoulder1  1.06286 0.273477 -26.7541
LeftArm  -15.2908 -14.083 -43.3001
LeftForeArm  8.19783 -67.355 -27.9681
LeftHand  -0.0971769 2.56764 3.5185
RightShoulder  -0.000824857 -3.48008 23.9727
RightArm  -14.3793 9.54584 42.4987
RightForeArm  29.4451 76.9572 61.2122
RightHand  -0.31391 3.93845 -4.16961
LeftUpLeg  -15.5663 7.75468 15.8912
LeftLeg  14.578 6.26328 3.08011
LeftFoot  -7.91753 0.299536 -7.73156
LeftToes  -1.93726e-010 2.42366e-011 2.16268e-013
